<?xml version="1.0" standalone="no"?>
<!DOCTYPE svg PUBLIC "-//W3C//DTD SVG 20010904//EN"
 "http://www.w3.org/TR/2001/REC-SVG-20010904/DTD/svg10.dtd">
<svg version="1.0" xmlns="http://www.w3.org/2000/svg"
 width="512.000000pt" height="512.000000pt" viewBox="0 0 512.000000 512.000000"
 preserveAspectRatio="xMidYMid meet">

<g transform="translate(0.000000,512.000000) scale(0.100000,-0.100000)"
fill="#000000" stroke="none">
<path d="M965 4809 c-11 -6 -118 -109 -238 -228 -141 -140 -221 -227 -228
-248 -22 -68 44 -143 115 -129 22 5 67 42 159 134 l127 127 0 -705 c0 -677 1
-706 19 -736 27 -44 77 -60 124 -40 70 29 67 -4 67 778 l0 703 128 -127 c138
-139 164 -153 220 -124 18 9 39 30 47 47 31 60 19 77 -214 312 -119 120 -228
225 -243 233 -32 17 -56 17 -83 3z"/>
<path d="M2193 4599 c-179 -30 -367 -140 -488 -286 -194 -233 -240 -575 -115
-850 49 -107 87 -135 155 -113 67 22 83 94 41 178 -62 123 -80 301 -42 427 91
304 388 494 692 441 292 -50 513 -307 514 -597 0 -31 -7 -91 -16 -132 -14 -69
-14 -78 1 -107 22 -42 74 -66 117 -54 66 19 100 119 100 294 -2 502 -458 882
-959 799z"/>
<path d="M2225 4186 c-117 -37 -200 -107 -252 -214 l-38 -76 -3 -918 c-1 -505
-6 -918 -11 -918 -4 0 -86 59 -182 131 -217 164 -232 173 -323 204 -274 92
-601 -69 -632 -311 -8 -63 16 -151 56 -208 50 -71 1560 -1569 1623 -1610 74
-48 205 -109 282 -132 89 -26 793 -33 920 -9 475 89 838 465 910 942 19 124
22 1288 4 1375 -54 258 -347 401 -579 283 l-47 -24 -21 45 c-65 132 -215 224
-368 224 -62 0 -188 -32 -199 -50 -13 -21 -31 -8 -58 45 -92 175 -312 256
-502 184 -27 -11 -51 -19 -52 -19 -2 0 -3 147 -3 328 0 180 -5 356 -11 392
-25 160 -125 278 -277 329 -70 24 -174 27 -237 7z m171 -201 c29 -8 62 -28 81
-47 66 -68 63 -26 63 -905 0 -769 1 -799 19 -829 28 -46 80 -61 129 -37 57 28
61 49 61 371 1 258 3 286 20 320 37 72 104 112 186 112 90 0 175 -70 195 -162
5 -27 10 -170 10 -322 l0 -273 25 -26 c36 -35 70 -41 113 -20 57 28 62 46 62
253 0 209 8 240 73 297 78 68 186 68 264 0 65 -57 73 -88 73 -297 0 -207 5
-225 62 -253 43 -21 77 -15 113 20 22 23 25 34 25 94 0 99 17 165 53 205 99
114 270 94 338 -39 19 -36 20 -61 17 -715 l-3 -677 -29 -85 c-117 -351 -381
-584 -732 -645 -65 -11 -164 -15 -391 -15 -321 0 -395 7 -507 52 -129 50 -147
67 -949 867 l-777 776 0 42 c0 55 40 102 118 140 49 23 70 27 142 27 58 0 97
-6 124 -17 22 -10 168 -114 325 -231 158 -117 297 -216 310 -219 31 -8 84 15
105 44 15 21 16 115 16 1023 0 761 3 1008 12 1040 16 53 83 120 134 134 55 14
64 14 120 -3z"/>
</g>
</svg>
