<?xml version="1.0" standalone="no"?>
<!DOCTYPE svg PUBLIC "-//W3C//DTD SVG 20010904//EN"
 "http://www.w3.org/TR/2001/REC-SVG-20010904/DTD/svg10.dtd">
<svg version="1.0" xmlns="http://www.w3.org/2000/svg"
 width="512.000000pt" height="512.000000pt" viewBox="0 0 512.000000 512.000000"
 preserveAspectRatio="xMidYMid meet">

<g transform="translate(0.000000,512.000000) scale(0.100000,-0.100000)"
fill="#000000" stroke="none">
<path d="M2132 4864 l-22 -15 0 -380 0 -379 -460 0 -460 0 0 85 c0 136 39 125
-458 125 -393 0 -420 -1 -435 -18 -15 -17 -17 -62 -17 -435 0 -404 1 -418 20
-437 18 -18 33 -20 175 -20 l155 0 0 -620 0 -620 -158 0 c-141 0 -161 -2 -175
-18 -15 -17 -17 -62 -17 -435 0 -404 1 -418 20 -437 18 -18 33 -20 175 -20
l154 0 21 -47 c33 -74 65 -109 131 -142 l62 -31 564 0 563 0 0 -125 0 -125
-172 0 c-161 0 -177 -2 -224 -24 -93 -43 -134 -117 -134 -242 0 -117 51 -196
153 -239 32 -13 157 -15 998 -15 708 0 972 3 1001 12 56 17 123 79 144 135 24
61 24 165 0 226 -21 56 -88 118 -144 135 -23 7 -107 12 -206 12 l-167 0 3 122
3 123 570 5 570 5 47 23 c57 28 111 88 134 149 l17 43 152 0 c136 0 155 2 176
19 l24 19 3 409 c3 402 2 410 -18 436 -21 26 -22 27 -178 29 l-157 3 -3 618
-2 617 154 0 c136 0 156 2 177 19 l24 19 3 409 c3 403 2 410 -18 436 l-21 27
-419 0 -419 0 -20 -26 c-17 -22 -21 -41 -21 -105 l0 -79 -465 0 -465 0 0 375
c0 362 -1 376 -20 395 -19 19 -33 20 -458 20 -380 0 -440 -2 -460 -16z m798
-449 l0 -325 -340 0 -340 0 0 325 0 325 340 0 340 0 0 -325z m-1880 -570 l0
-315 -315 0 -315 0 0 315 0 315 315 0 315 0 0 -315z m3730 0 l0 -315 -320 0
-320 0 0 315 0 315 320 0 320 0 0 -315z m-2252 -52 l-3 -158 -377 -217 -377
-218 -290 152 -291 151 0 224 0 223 670 0 671 0 -3 -157z m1472 -67 l0 -224
-289 -151 -289 -151 -278 161 c-154 89 -323 186 -376 217 l-98 56 0 158 0 158
665 0 665 0 0 -224z m-1055 -411 c179 -104 325 -191 325 -194 0 -6 -632 -375
-663 -386 -9 -4 -142 67 -351 187 -184 106 -336 195 -336 198 0 12 667 390
682 386 10 -2 164 -88 343 -191z m-1545 -79 l295 -154 2 -368 3 -369 -303 -98
-302 -98 -162 0 -163 1 0 620 0 620 168 0 167 0 295 -154z m3020 -466 l0 -620
-162 0 -163 0 -300 98 -300 98 -3 366 -2 366 297 155 298 156 168 1 167 0 0
-620z m-2210 18 l315 -183 3 -327 c1 -186 -2 -328 -7 -328 -8 0 -72 37 -501
285 l-175 102 -3 332 -2 332 27 -15 c16 -8 170 -97 343 -198z m1140 -120 l0
-333 -331 -190 c-181 -104 -334 -191 -340 -193 -5 -2 -9 124 -9 325 l0 330
207 119 c113 65 265 154 337 196 72 42 132 77 134 77 1 1 2 -149 2 -331z
m-1177 -683 c224 -129 414 -235 424 -235 9 0 200 106 424 236 l408 235 285
-93 285 -93 1 -192 0 -193 -1405 0 -1405 0 2 192 3 192 280 92 c154 51 282 93
286 93 3 1 188 -105 412 -234z m-1123 -290 l0 -315 -315 0 -315 0 0 315 0 315
315 0 315 0 0 -315z m3730 0 l0 -315 -320 0 -320 0 0 315 0 315 320 0 320 0 0
-315z m-778 -301 c4 -160 -4 -154 229 -154 178 0 180 0 169 -21 -6 -11 -26
-29 -43 -39 -31 -20 -67 -20 -1762 -20 -1695 0 -1731 0 -1762 20 -17 10 -37
28 -43 39 -11 21 -9 21 170 21 179 0 181 0 205 25 24 23 25 31 25 135 l0 110
1404 0 1404 0 4 -116z m-922 -499 l0 -125 -485 0 -485 0 0 125 0 125 485 0
485 0 0 -125z m501 -293 c29 -26 32 -34 33 -91 1 -59 -1 -65 -32 -92 l-32 -29
-956 0 -956 0 -29 29 c-26 26 -29 36 -29 91 0 55 3 65 29 91 l29 29 956 0 956
0 31 -28z"/>
</g>
</svg>
