<?xml version="1.0" standalone="no"?>
<!DOCTYPE svg PUBLIC "-//W3C//DTD SVG 20010904//EN"
 "http://www.w3.org/TR/2001/REC-SVG-20010904/DTD/svg10.dtd">
<svg version="1.0" xmlns="http://www.w3.org/2000/svg"
 width="512.000000pt" height="512.000000pt" viewBox="0 0 512.000000 512.000000"
 preserveAspectRatio="xMidYMid meet">

<g transform="translate(0.000000,512.000000) scale(0.100000,-0.100000)"
fill="#000000" stroke="none">
<path d="M1434 4900 c-619 -65 -1147 -489 -1347 -1080 -233 -686 24 -1437 629
-1842 47 -31 121 -74 165 -95 l79 -38 0 -55 c0 -76 25 -274 45 -351 75 -298
215 -547 426 -758 432 -431 1063 -579 1639 -384 514 174 906 597 1041 1125 23
92 49 284 49 368 l0 55 79 38 c298 143 567 416 720 731 296 609 171 1344 -310
1825 -217 217 -505 374 -799 435 -414 87 -875 -1 -1216 -234 l-74 -50 -74 50
c-296 202 -687 298 -1052 260z m362 -205 c192 -29 379 -96 532 -191 l72 -46
-29 -37 c-17 -21 -38 -44 -47 -52 -24 -20 -123 -154 -170 -230 -77 -123 -149
-298 -189 -458 -20 -79 -45 -275 -45 -352 0 -56 -1 -58 -32 -68 -18 -6 -76
-36 -128 -67 -395 -236 -658 -594 -760 -1036 -12 -54 -26 -98 -30 -98 -4 0
-46 25 -95 55 -402 253 -643 655 -672 1121 -43 711 494 1362 1204 1459 134 18
266 18 389 0z m1908 0 c309 -41 577 -174 802 -399 477 -477 548 -1205 173
-1766 -68 -102 -191 -236 -284 -310 -63 -50 -232 -160 -245 -160 -4 0 -18 44
-30 97 -102 443 -365 801 -760 1037 -52 31 -110 61 -127 67 -32 10 -33 12 -33
68 0 77 -25 273 -45 352 -40 160 -112 335 -189 458 -47 76 -146 210 -170 230
-9 8 -30 31 -47 52 l-29 37 72 46 c267 166 591 234 912 191z m-1088 -427 c220
-230 347 -514 379 -852 7 -69 7 -69 -17 -62 -146 40 -229 50 -418 50 -189 0
-272 -10 -418 -50 -24 -7 -24 -7 -17 62 27 286 127 546 289 749 45 57 138 155
146 155 3 0 28 -24 56 -52z m137 -1073 c106 -16 217 -42 230 -54 11 -10 -19
-157 -53 -262 -62 -189 -172 -377 -298 -509 l-72 -75 -72 75 c-126 132 -236
320 -298 509 -31 96 -63 248 -55 261 6 10 127 40 229 55 112 18 272 18 389 0z
m-803 -192 c46 -239 183 -526 341 -712 30 -35 66 -79 82 -97 l27 -32 -72 -46
c-267 -166 -613 -238 -921 -191 -106 16 -217 42 -230 54 -10 10 18 155 50 255
100 318 331 607 627 784 39 23 73 42 77 42 4 0 13 -26 19 -57z m1316 15 c296
-177 527 -466 627 -784 32 -100 60 -245 50 -255 -13 -12 -124 -38 -230 -54
-308 -47 -654 25 -921 191 l-72 46 27 32 c16 18 52 62 82 97 158 186 295 473
341 712 6 31 15 57 19 57 4 0 38 -19 77 -42z m-631 -1038 c367 -251 851 -331
1298 -215 l29 8 -7 -69 c-40 -409 -228 -756 -540 -999 -503 -391 -1207 -391
-1710 0 -312 243 -500 590 -540 999 l-7 69 29 -8 c316 -82 640 -69 943 37 114
41 270 118 355 178 39 27 71 49 73 49 1 1 36 -22 77 -49z"/>
<path d="M1027 4361 c-204 -107 -391 -301 -499 -516 -51 -100 -60 -140 -43
-181 16 -38 45 -56 92 -56 47 0 68 22 119 125 24 48 62 115 86 150 57 84 178
202 263 256 39 24 85 54 102 65 62 40 67 114 11 161 -38 32 -63 32 -131 -4z"/>
<path d="M465 3401 c-62 -26 -81 -110 -34 -156 14 -14 42 -28 62 -32 32 -5 41
-1 72 30 47 47 48 86 1 133 -34 34 -61 41 -101 25z"/>
<path d="M3484 4500 c-32 -13 -64 -59 -64 -91 0 -40 46 -88 91 -95 31 -5 42
-1 70 24 28 25 34 37 34 72 0 35 -6 47 -33 71 -33 29 -60 35 -98 19z"/>
<path d="M3873 4425 c-38 -16 -55 -45 -55 -92 0 -47 22 -68 126 -119 216 -108
362 -252 472 -467 45 -88 62 -111 89 -124 40 -19 77 -12 111 22 34 34 31 81
-11 172 -112 243 -337 468 -576 577 -96 43 -117 48 -156 31z"/>
<path d="M3495 1399 c-20 -10 -26 -18 -106 -144 -54 -85 -172 -206 -256 -263
-35 -24 -102 -62 -150 -86 -103 -51 -125 -72 -125 -119 0 -74 56 -115 128 -95
117 32 295 148 420 272 121 121 234 291 234 352 0 58 -92 110 -145 83z"/>
<path d="M2524 800 c-32 -13 -64 -59 -64 -91 0 -40 46 -88 91 -95 31 -5 42 -1
70 24 28 25 34 37 34 72 0 35 -6 47 -33 71 -33 29 -60 35 -98 19z"/>
</g>
</svg>
