<?xml version="1.0" encoding="utf-8"?>
<!DOCTYPE svg PUBLIC "-//W3C//DTD SVG 20010904//EN" "http://www.w3.org/TR/2001/REC-SVG-20010904/DTD/svg10.dtd">
<svg height="512.000000pt" preserveAspectRatio="xMidYMid meet" version="1.0" viewBox="0 0 512.000000 512.000000" width="512.000000pt" xmlns="http://www.w3.org/2000/svg">
<g fill="#555392" stroke="none" transform="translate(0.000000,512.000000) scale(0.100000,-0.100000)">
<path d="M320 4947 c-49 -16 -133 -102 -148 -153 -17 -60 -17 -3048 0 -3108 16 -55 99 -138 154 -154 29 -8 151 -12 416 -12 l375 0 6 -52 c8 -64 49 -133 103 -171 30 -21 66 -32 149 -47 121 -22 136 -31 157 -101 11 -39 11 -40 -56 -137 -58 -85 -68 -106 -73 -155 -11 -106 5 -137 141 -273 128 -127 156 -144 243 -144 59 0 99 17 192 82 47 32 93 58 103 58 21 0 94 -35 103 -49 3 -5 14 -58 25 -118 23 -126 48 -171 125 -218 l48 -30 177 0 177 0 48 30 c77 48 102 92 125 220 22 121 31 136 101 157 39 11 40 11 140 -58 97 -66 103 -69 169 -72 98 -6 134 14 266 151 116 118 134 150 134 234 0 59 -17 99 -82 192 -32 47 -58 93 -58 103 0 22 35 94 50 103 5 3 49 13 97 21 49 8 102 20 118 26 81 30 141 109 152 197 l6 51 375 0 c265 0 387 4 416 12 55 16 138 99 154 154 17 60 17 3048 0 3108 -16 55 -99 138 -154 154 -57 17 -4421 16 -4474 -1z m4455 -172 c25 -24 25 -24 25 -240 l0 -215 -2240 0 -2240 0 0 215 c0 216 0 216 25 240 l24 25 2191 0 2191 0 24 -25z m25 -1830 l0 -1216 -25 -24 -24 -25 -374 0 -374 0 -6 52 c-14 111 -92 189 -215 212 -40 8 -75 16 -78 19 -3 2 7 60 22 128 27 124 27 126 31 629 4 479 4 507 -14 528 -18 22 -1149 512 -1181 512 -32 0 -1167 -491 -1185 -513 -18 -20 -18 -48 -14 -527 4 -503 4 -505 31 -629 15 -68 25 -126 22 -128 -3 -3 -38 -11 -78 -19 -123 -23 -201 -101 -215 -212 l-6 -52 -374 0 -374 0 -24 25 -25 24 0 1216 0 1215 2240 0 2240 0 0 -1215z m-1707 421 l507 -218 0 -404 c0 -508 -13 -623 -97 -849 -42 -115 -130 -277 -205 -377 -128 -171 -204 -239 -534 -474 l-204 -146 -192 138 c-106 76 -220 158 -252 182 -289 221 -483 533 -568 911 -19 88 -21 133 -25 557 l-5 460 514 221 c282 122 522 220 533 219 11 -1 248 -101 528 -220z m-1570 -1658 c102 -216 247 -408 417 -553 131 -112 592 -435 620 -435 30 0 492 325 625 440 155 133 319 349 411 544 29 63 51 96 61 96 9 0 45 -5 80 -11 96 -17 103 -30 103 -189 0 -162 -6 -173 -113 -190 -158 -26 -215 -56 -259 -137 -68 -125 -61 -204 33 -335 82 -115 81 -119 -34 -240 -118 -123 -125 -124 -245 -39 -130 94 -210 101 -335 33 -81 -44 -111 -101 -137 -259 -17 -107 -28 -113 -190 -113 -162 0 -173 6 -190 113 -26 158 -56 215 -137 259 -125 68 -204 61 -335 -33 -115 -82 -119 -81 -240 34 -123 118 -124 125 -39 245 94 131 101 210 33 335 -44 81 -101 111 -259 137 -107 17 -113 28 -113 191 0 118 2 130 23 153 14 17 39 29 72 35 104 19 99 21 148 -81z"/>
<path d="M480 4560 l0 -80 80 0 80 0 0 80 0 80 -80 0 -80 0 0 -80z"/>
<path d="M800 4560 l0 -80 80 0 80 0 0 80 0 80 -80 0 -80 0 0 -80z"/>
<path d="M1120 4560 l0 -80 80 0 80 0 0 80 0 80 -80 0 -80 0 0 -80z"/>
<path d="M480 3920 l0 -80 342 0 343 0 187 -187 188 -188 57 58 58 57 -210 210 -211 210 -377 0 -377 0 0 -80z"/>
<path d="M2160 3920 l0 -80 80 0 80 0 0 80 0 80 -80 0 -80 0 0 -80z"/>
<path d="M2480 3920 l0 -80 80 0 80 0 0 80 0 80 -80 0 -80 0 0 -80z"/>
<path d="M2800 3920 l0 -80 80 0 80 0 0 80 0 80 -80 0 -80 0 0 -80z"/>
<path d="M3675 3790 l-210 -210 58 -57 57 -58 188 188 187 187 343 0 342 0 0 80 0 80 -377 0 -377 0 -211 -210z"/>
<path d="M480 3600 l0 -80 320 0 320 0 0 80 0 80 -320 0 -320 0 0 -80z"/>
<path d="M4000 3600 l0 -80 320 0 320 0 0 80 0 80 -320 0 -320 0 0 -80z"/>
<path d="M480 3280 l0 -80 320 0 320 0 0 80 0 80 -320 0 -320 0 0 -80z"/>
<path d="M4000 3280 l0 -80 320 0 320 0 0 80 0 80 -320 0 -320 0 0 -80z"/>
<path d="M480 2960 l0 -80 320 0 320 0 0 80 0 80 -320 0 -320 0 0 -80z"/>
<path d="M4000 2960 l0 -80 320 0 320 0 0 80 0 80 -320 0 -320 0 0 -80z"/>
<path d="M2745 2585 c-170 -190 -321 -358 -335 -374 l-25 -29 -172 103 -172 104 -37 -62 c-21 -34 -39 -65 -41 -69 -6 -11 414 -258 439 -258 13 0 32 6 41 13 9 6 178 192 377 412 l360 400 -58 52 c-31 29 -59 52 -62 52 -3 0 -144 -155 -315 -344z"/>
</g>
</svg>